<?xml version="1.0" encoding="utf-8"?>
<!-- Generator: Adobe Illustrator 27.8.1, SVG Export Plug-In . SVG Version: 6.00 Build 0)  -->
<svg version="1.1" id="Слой_1" xmlns="http://www.w3.org/2000/svg" xmlns:xlink="http://www.w3.org/1999/xlink" x="0px" y="0px"
	 viewBox="0 0 595.28 841.89" style="enable-background:new 0 0 595.28 841.89;" xml:space="preserve">
<style type="text/css">
	.st0{fill:#FFFFFF;stroke:#000000;stroke-miterlimit:10;}
	.st1{fill:#3EB5F1;stroke:#3EB5F1;stroke-miterlimit:10;}
	.st2{fill:#D24A43;stroke:#3EB5F1;stroke-miterlimit:10;}
</style>
<path class="st0" d="M229,248"/>
<path class="st1" d="M488.22,104.62c-45.96-3.46-79.02,32.81-76.14,64.27c2.2,24.01,25.49,47.03,57.11,51.96
	c-23.29,1.32-40.11,22.42-37.18,43.76c2.69,19.59,21.38,34.77,42.62,32.82c0,96.19,0,192.38,0,288.57c20.85,0,41.7,0,62.54,0
	c0-9.59,0-19.19,0-28.78c-9.52,0-19.04,0-28.55,0c0-10.11,0-20.22,0-30.33c9.52,0,19.04,0,28.55,0c0-7.67,0-15.34,0-23.01
	c-10.42,0-20.85,0-31.27,0c0-68.82,0-137.63,0-206.45c20.44-0.31,37.22-16.16,38.86-35.72c1.75-20.91-14.31-40.3-36.14-42.23
	c29.23-5.86,50.77-27.53,53.03-50.6C564.68,137.81,532.93,102.27,488.22,104.62z"/>
<path class="st2" d="M83.44,180.84c-15.92-12.55-37.71-11.02-50.67,2.49c-10.93,11.39-13.95,29.59-7.32,45.4
	c20.62,30.17,41.23,60.34,61.85,90.51c20.32-29.72,40.64-59.45,60.95-89.17c5.87-17.13,1.88-36.02-9.98-47.68
	C123.93,168.28,100.52,167.15,83.44,180.84z"/>
<path class="st2" d="M201.9,200.54c0.07-4.87-25.15-4.1-29-15.99c-3.26-10.04,8.79-28.95,25.62-31.11
	c12.58-1.62,25.56,6.42,31.61,20.21c33.49,0,66.97,0,100.46,0c2.77-15.58,16.6-25.91,30.48-23.78
	c15.99,2.46,25.38,20.41,22.58,30.91c-3.69,13.82-28.92,16.33-28.15,21.53c0.74,4.97,23.45,0.44,28.15,10.11
	c4.25,8.74-5.65,30.2-22.58,32.56c-13.32,1.85-27.27-8.63-30.48-24.97c-32.73,0-65.47,0-98.2,0c-4.9,13.63-17.57,22.13-30.48,20.95
	c-14.8-1.36-26.96-15.18-27.09-32.1C195.32,205.86,201.87,203.02,201.9,200.54z"/>
<path class="st2" d="M233.61,463.88c-2.59,16.85-17.75,28.54-33.48,27.15c-18.21-1.62-30.28-20.16-27.31-36.55
	c3.17-17.5,23.05-30.17,43.16-24.35c-1.26-0.74-20.4-12.38-20.29-30.96c0.12-20.22,22.97-35.12,42.95-34.84
	c15.76,0.22,37.31,10,39.6,29.31c1.67,14.09-7.41,28.91-22.87,35.95c24.04-7.68,47.1,4.97,51.87,22.68
	c3.91,14.52-3.84,34.87-20.64,39.27c-15.9,4.16-35.01-7.25-39.04-27.1c-1.39,3.02-6.31,14.61-2.23,28.76
	c3.75,12.99,12.75,20.05,15.62,22.13c-13.94,0-27.89,0-41.83-0.01c3.12-2.32,11.75-9.38,15.72-22.07
	C239.26,479.1,234.98,467.27,233.61,463.88z"/>
<ellipse class="st2" cx="340.01" cy="313.46" rx="78.47" ry="46.61"/>
<path class="st2" d="M302.22,354.32c0.84,0.88,5.67,6.1,4.52,13.05c-1.13,6.83-7.57,12.52-16.11,13.99
	c5.34,0.38,24.51,1.15,39.65-10.68c4.48-3.5,7.59-7.31,9.73-10.61"/>
<path class="st2" d="M181.92,236.93c-5.44,3.1-17.13,10.73-25.32,25.36c-6.5,11.61-7.9,22.45-8.22,28.45
	c-3.76-0.11-16.3-0.03-28.21,8.71c-10.96,8.05-14.83,18.62-15.99,22.3c2.51,4.17,14.42,22.96,38.17,28.59
	c12.16,2.88,22.55,1.16,28.41-0.32c0.32,6.99-0.25,16.86-4.82,27.25c-4.89,11.1-11.81,16.97-9.33,21.42
	c1.93,3.46,8.6,4.41,13.33,2.62c6.83-2.58,9.13-10.71,12-21.42c1.8-6.74,3.7-16.57,3.53-28.88c3.61,1.35,21.45,7.6,41.34-0.85
	c21.16-8.99,28.55-27.8,29.77-31.04c-1.72-4.13-5.48-11.57-13.24-18.1c-10.82-9.11-22.68-10.78-27.19-11.19
	c0.45-5.11,0.6-15.35-4.71-26.43C202.76,245.33,185.99,238.47,181.92,236.93z"/>
</svg>
