<?xml version="1.0" encoding="utf-8"?>
<!-- Generator: Adobe Illustrator 27.8.1, SVG Export Plug-In . SVG Version: 6.00 Build 0)  -->
<svg version="1.1" id="Слой_1" xmlns="http://www.w3.org/2000/svg" xmlns:xlink="http://www.w3.org/1999/xlink" x="0px" y="0px"
	 viewBox="0 0 595.28 841.89" style="enable-background:new 0 0 595.28 841.89;" xml:space="preserve">
<style type="text/css">
	.st0{fill:#FFFFFF;stroke:#000000;stroke-width:10;stroke-miterlimit:10;}
	.st1{fill:#FFFFFF;stroke:#000000;stroke-width:4;stroke-miterlimit:10;}
	.st2{fill:#FFFFFF;stroke:#000000;stroke-width:3;stroke-miterlimit:10;}
	.st3{fill:#95C11F;stroke:#000000;stroke-width:3;stroke-miterlimit:10;}
	.st4{stroke:#000000;stroke-width:3;stroke-miterlimit:10;}
	.st5{fill:#FFFFFF;stroke:#000000;stroke-width:2;stroke-miterlimit:10;}
	.st6{fill:#FFFFFF;stroke:#000000;stroke-miterlimit:10;}
	.st7{fill:#95C11F;stroke:#FFFFFF;stroke-width:3;stroke-miterlimit:10;}
	.st8{fill:#FFFFFF;}
	.st9{fill:#FCEA10;stroke:#E30613;stroke-width:6;stroke-miterlimit:10;}
	.st10{fill:#E30613;}
	.st11{fill:#FFFFFF;stroke:#95C11F;stroke-width:7;stroke-miterlimit:10;}
	.st12{fill:#95C11F;stroke:#FFFFFF;stroke-width:8;stroke-miterlimit:10;}
	.st13{fill:#E30613;stroke:#FFFFFF;stroke-miterlimit:10;}
	.st14{fill:#FFFFFF;stroke:#FFFFFF;stroke-miterlimit:10;}
	.st15{fill:#95C11F;stroke:#FFFFFF;stroke-width:4;stroke-miterlimit:10;}
	.st16{fill:#FFED00;stroke:#000000;stroke-width:2;stroke-miterlimit:10;}
	.st17{stroke:#000000;stroke-width:0.5;stroke-miterlimit:10;}
</style>
<ellipse cx="34.38" cy="406.5" rx="16.93" ry="17.2"/>
<ellipse class="st0" cx="51.32" cy="444.2" rx="10.98" ry="11.16"/>
<ellipse cx="83.45" cy="444.2" rx="21.15" ry="21.48"/>
<ellipse cx="104.6" cy="433.04" rx="21.15" ry="21.48"/>
<ellipse cx="94.33" cy="465.68" rx="21.15" ry="21.48"/>
<ellipse class="st1" cx="97.98" cy="458.96" rx="14.53" ry="14.76"/>
<ellipse cx="153.61" cy="426.44" rx="26.85" ry="27.27"/>
<ellipse cx="174.16" cy="405.26" rx="21.76" ry="22.11"/>
<ellipse cx="138.25" cy="402.62" rx="20.7" ry="21.02"/>
<ellipse class="st2" cx="160.73" cy="384.66" rx="7.02" ry="7.13"/>
<ellipse cx="109.56" cy="490.38" rx="7.71" ry="7.83"/>
<ellipse class="st2" cx="175.67" cy="479.66" rx="13.71" ry="13.92"/>
<ellipse cx="152.2" cy="479.66" rx="19.03" ry="19.33"/>
<g>
	<g>
		<path d="M114.72,495.41c0,12.98,0,25.95,0,38.93c0,1.96,1.72,3.84,3.75,3.75c2.03-0.09,3.75-1.65,3.75-3.75
			c0-12.98,0-25.95,0-38.93c0-1.96-1.72-3.84-3.75-3.75C116.44,491.75,114.72,493.31,114.72,495.41L114.72,495.41z"/>
	</g>
</g>
<g>
	<g>
		<path d="M148.3,497.21c0,19.81,0,39.62,0,59.43c0,1.96,1.72,3.84,3.75,3.75c2.03-0.09,3.75-1.65,3.75-3.75
			c0-19.81,0-39.62,0-59.43c0-1.96-1.72-3.84-3.75-3.75C150.02,493.55,148.3,495.11,148.3,497.21L148.3,497.21z"/>
	</g>
</g>
<polygon class="st3" points="110.28,373.36 94.63,375.01 87.1,389.03 80.72,374.43 65.26,371.49 76.96,360.81 74.94,344.97 
	88.55,352.97 102.77,346.13 99.47,361.75 "/>
<g>
	<g>
		<path d="M63.81,373.56c9.72,14.63,19.43,29.26,29.15,43.89c1.33,2,4.58,0.13,3.24-1.89c-9.72-14.63-19.43-29.26-29.15-43.89
			C65.72,369.67,62.47,371.54,63.81,373.56L63.81,373.56z"/>
	</g>
</g>
<g>
	<g>
		<path d="M85.19,388.84c9.72,14.63,19.43,29.26,29.15,43.89c1.33,2,4.58,0.13,3.24-1.89c-9.72-14.63-19.43-29.26-29.15-43.89
			C87.1,384.95,83.85,386.83,85.19,388.84L85.19,388.84z"/>
	</g>
</g>
<g>
	<g>
		<path d="M100.26,377.65c9.72,14.63,19.43,29.26,29.15,43.89c1.33,2,4.58,0.13,3.24-1.89c-9.72-14.63-19.43-29.26-29.15-43.89
			C102.17,373.76,98.92,375.63,100.26,377.65L100.26,377.65z"/>
	</g>
</g>
<g>
	<g>
		<path d="M101.59,347.86c9.72,14.63,19.43,29.26,29.15,43.89c1.33,2,4.58,0.13,3.24-1.89c-9.72-14.63-19.43-29.26-29.15-43.89
			C103.5,343.97,100.25,345.84,101.59,347.86L101.59,347.86z"/>
	</g>
</g>
<g>
	<polygon class="st4" points="181.18,311.79 171.7,307.08 162.5,312.34 163.99,301.73 156.22,294.47 166.62,292.62 171.01,282.88 
		175.96,292.35 186.44,293.58 179.1,301.28 	"/>
	<g>
		<g>
			<path d="M154.05,295.17c0.41,11.83,0.81,23.66,1.22,35.5c0.08,2.41,3.83,2.42,3.75,0c-0.41-11.83-0.81-23.66-1.22-35.5
				C157.72,292.77,153.97,292.76,154.05,295.17L154.05,295.17z"/>
		</g>
	</g>
	<g>
		<g>
			<path d="M173.36,310.66c0.41,11.83,0.81,23.66,1.22,35.5c0.08,2.41,3.83,2.42,3.75,0c-0.41-11.83-0.81-23.66-1.22-35.5
				C177.03,308.26,173.28,308.25,173.36,310.66L173.36,310.66z"/>
		</g>
	</g>
	<g>
		<g>
			<path d="M184.54,294.19c0.41,11.83,0.81,23.66,1.22,35.5c0.08,2.41,3.83,2.42,3.75,0c-0.41-11.83-0.81-23.66-1.22-35.5
				C188.21,291.79,184.46,291.78,184.54,294.19L184.54,294.19z"/>
		</g>
	</g>
</g>
<g>
	<g>
		<path d="M161.61,311.94c0.41,11.83,0.81,23.66,1.22,35.5c0.08,2.41,3.83,2.42,3.75,0c-0.41-11.83-0.81-23.66-1.22-35.5
			C165.27,309.54,161.52,309.53,161.61,311.94L161.61,311.94z"/>
	</g>
</g>
<ellipse cx="217.03" cy="393.66" rx="26.85" ry="27.27"/>
<ellipse cx="248.6" cy="389.9" rx="24.23" ry="24.61"/>
<ellipse cx="274.76" cy="383.76" rx="26.85" ry="27.27"/>
<ellipse class="st5" cx="232.35" cy="358.46" rx="6" ry="6.09"/>
<ellipse cx="255.37" cy="350.54" rx="7.71" ry="7.83"/>
<ellipse cx="220.86" cy="440.51" rx="36.2" ry="36.76"/>
<ellipse cx="287.07" cy="422.53" rx="41.45" ry="42.11"/>
<ellipse cx="253.78" cy="458.05" rx="22.23" ry="22.58"/>
<ellipse class="st1" cx="256.57" cy="446.99" rx="20.36" ry="20.68"/>
<ellipse class="st1" cx="220.86" cy="426.31" rx="13.03" ry="13.23"/>
<ellipse class="st1" cx="259.32" cy="396.92" rx="11.2" ry="11.38"/>
<ellipse class="st1" cx="225.03" cy="462.47" rx="7.53" ry="7.65"/>
<ellipse class="st6" cx="309.13" cy="458.96" rx="7.53" ry="7.65"/>
<g>
	<g>
		<path d="M205.63,471.69c0,19.81,0,39.62,0,59.43c0,2.62,2.3,5.12,5,5c2.71-0.12,5-2.2,5-5c0-19.81,0-39.62,0-59.43
			c0-2.62-2.3-5.12-5-5C207.92,466.82,205.63,468.89,205.63,471.69L205.63,471.69z"/>
	</g>
</g>
<g>
	<g>
		<path d="M233.34,477.27c0,13.13,0,26.26,0,39.39c0,2.62,2.3,5.12,5,5c2.71-0.12,5-2.2,5-5c0-13.13,0-26.26,0-39.39
			c0-2.62-2.3-5.12-5-5C235.63,472.39,233.34,474.47,233.34,477.27L233.34,477.27z"/>
	</g>
</g>
<ellipse cx="238.62" cy="529.68" rx="5.69" ry="5.78"/>
<ellipse class="st2" cx="254.89" cy="491.35" rx="7.64" ry="7.76"/>
<g>
	<g>
		<path d="M282.07,491.35c0,11.57,0,23.15,0,34.72c0,2.62,2.3,5.12,5,5c2.71-0.12,5-2.2,5-5c0-11.57,0-23.15,0-34.72
			c0-2.62-2.3-5.12-5-5C284.36,486.47,282.07,488.55,282.07,491.35L282.07,491.35z"/>
	</g>
</g>
<g>
	<g>
		<path d="M296.61,499.42c0,4.04,0,8.07,0,12.11c0,1.28,0.56,2.63,1.46,3.54c0.87,0.87,2.29,1.52,3.54,1.46c2.71-0.12,5-2.2,5-5
			c0-4.04,0-8.07,0-12.11c0-1.28-0.56-2.63-1.46-3.54c-0.87-0.87-2.29-1.52-3.54-1.46C298.9,494.54,296.61,496.62,296.61,499.42
			L296.61,499.42z"/>
	</g>
</g>
<g>
	<g>
		<path d="M325.67,489.99c0,17.78,0,35.57,0,53.35c0,2.62,2.3,5.12,5,5c2.71-0.12,5-2.2,5-5c0-17.78,0-35.57,0-53.35
			c0-2.62-2.3-5.12-5-5C327.96,485.11,325.67,487.18,325.67,489.99L325.67,489.99z"/>
	</g>
</g>
<ellipse cx="353.97" cy="477.57" rx="11.04" ry="11.21"/>
<ellipse cx="368.15" cy="423.64" rx="37.89" ry="38.48"/>
<ellipse cx="377.14" cy="385.54" rx="37.89" ry="38.48"/>
<ellipse cx="429.56" cy="411.45" rx="37.89" ry="38.48"/>
<ellipse cx="422.54" cy="457.87" rx="15.97" ry="16.22"/>
<ellipse cx="451.02" cy="451.25" rx="16.61" ry="16.87"/>
<ellipse class="st1" cx="430.21" cy="418.94" rx="11.2" ry="11.38"/>
<ellipse class="st1" cx="368.15" cy="383.76" rx="11.2" ry="11.38"/>
<ellipse cx="345.74" cy="358.37" rx="13.63" ry="13.85"/>
<ellipse class="st6" cx="401.07" cy="350.54" rx="11.2" ry="11.38"/>
<g>
	<g>
		<path d="M370.68,455.88c0,9.24,0,18.48,0,27.72c0,2.62,2.3,5.12,5,5c2.71-0.12,5-2.2,5-5c0-9.24,0-18.48,0-27.72
			c0-2.62-2.3-5.12-5-5C372.97,451,370.68,453.08,370.68,455.88L370.68,455.88z"/>
	</g>
</g>
<g>
	<g>
		<path d="M406.92,456.6c0,9.24,0,18.48,0,27.72c0,2.62,2.3,5.12,5,5c2.71-0.12,5-2.2,5-5c0-9.24,0-18.48,0-27.72
			c0-2.62-2.3-5.12-5-5C409.21,451.73,406.92,453.8,406.92,456.6L406.92,456.6z"/>
	</g>
</g>
<ellipse cx="411.92" cy="494.9" rx="5.69" ry="5.78"/>
<ellipse class="st2" cx="430.78" cy="475.95" rx="7.73" ry="7.85"/>
<g>
	<g>
		<path d="M453.85,454.08c0,9.24,0,18.48,0,27.72c0,2.62,2.3,5.12,5,5c2.71-0.12,5-2.2,5-5c0-9.24,0-18.48,0-27.72
			c0-2.62-2.3-5.12-5-5C456.14,449.2,453.85,451.28,453.85,454.08L453.85,454.08z"/>
	</g>
</g>
<ellipse cx="453.72" cy="368.44" rx="17.62" ry="17.89"/>
<ellipse class="st1" cx="447.36" cy="334.83" rx="7.06" ry="7.17"/>
<ellipse cx="437.02" cy="350.54" rx="17.62" ry="17.89"/>
<ellipse cx="483.39" cy="367" rx="17.62" ry="17.89"/>
<ellipse class="st1" cx="471.03" cy="368.86" rx="7.36" ry="7.47"/>
<g>
	<polygon class="st4" points="484.88,328.05 478.25,319.71 467.72,320.53 473.48,311.55 469.46,301.63 479.65,304.42 487.69,297.48 
		488.23,308.18 497.22,313.8 487.36,317.63 	"/>
	<g>
		<g>
			<path d="M467.09,301.65c-4.55,10.9-9.11,21.8-13.66,32.7c-0.39,0.94,0.42,2.05,1.31,2.31c1.08,0.31,1.92-0.38,2.31-1.31
				c4.55-10.9,9.11-21.8,13.66-32.7c0.39-0.94-0.42-2.05-1.31-2.31C468.32,300.03,467.48,300.72,467.09,301.65L467.09,301.65z"/>
		</g>
	</g>
	<g>
		<g>
			<path d="M478.15,323.97c-4.55,10.9-9.11,21.8-13.66,32.7c-0.39,0.94,0.42,2.05,1.31,2.31c1.08,0.31,1.92-0.38,2.31-1.31
				c4.55-10.9,9.11-21.8,13.66-32.7c0.39-0.94-0.42-2.05-1.31-2.31C479.38,322.36,478.54,323.04,478.15,323.97L478.15,323.97z"/>
		</g>
	</g>
	<g>
		<g>
			<path d="M495.14,313.85c-4.55,10.9-9.11,21.8-13.66,32.7c-0.39,0.94,0.42,2.05,1.31,2.31c1.08,0.31,1.92-0.38,2.31-1.31
				c4.55-10.9,9.11-21.8,13.66-32.7c0.39-0.94-0.42-2.05-1.31-2.31C496.37,312.23,495.53,312.92,495.14,313.85L495.14,313.85z"/>
		</g>
	</g>
</g>
<g>
	<g>
		<path d="M466.97,320.09c-4.55,10.9-9.11,21.8-13.66,32.7c-0.39,0.94,0.42,2.05,1.31,2.31c1.08,0.31,1.92-0.38,2.31-1.31
			c4.55-10.9,9.11-21.8,13.66-32.7c0.39-0.94-0.42-2.05-1.31-2.31C468.2,318.47,467.35,319.16,466.97,320.09L466.97,320.09z"/>
	</g>
</g>
<ellipse class="st1" cx="523.35" cy="358.46" rx="11.2" ry="11.38"/>
<ellipse cx="539.33" cy="390.8" rx="18.63" ry="18.03"/>
<ellipse cx="507.27" cy="408.3" rx="23.51" ry="23.88"/>
<ellipse cx="517.24" cy="389.02" rx="22.08" ry="21.37"/>
<ellipse class="st1" cx="526.67" cy="392.89" rx="6.28" ry="6.38"/>
<ellipse cx="557.96" cy="366.39" rx="6.11" ry="6.21"/>
<ellipse cx="556.9" cy="408.83" rx="4.9" ry="4.98"/>
<g>
	<g>
		<path d="M487.78,420.52c0,13.27,0,26.54,0,39.81c0,2.62,2.3,5.12,5,5c2.71-0.12,5-2.2,5-5c0-13.27,0-26.54,0-39.81
			c0-2.62-2.3-5.12-5-5C490.07,415.64,487.78,417.72,487.78,420.52L487.78,420.52z"/>
	</g>
</g>
<ellipse class="st1" cx="391.12" cy="451.31" rx="11.2" ry="11.38"/>
<polygon class="st3" points="340.64,325.44 326.87,310.68 306.69,313.79 316.72,295.98 307.8,277.87 327.78,281.62 342.45,267.32 
	344.75,287.45 362.74,296.72 344.19,305.41 "/>
<g>
	<g>
		<path d="M304.97,278.42c-7.21,20.54-14.41,41.09-21.62,61.63c-2.04,5.8-4.07,11.61-6.11,17.41c-0.8,2.28,2.82,3.26,3.62,1
			c7.21-20.54,14.41-41.09,21.62-61.63c2.04-5.8,4.07-11.61,6.11-17.41C309.39,277.14,305.77,276.16,304.97,278.42L304.97,278.42z"
			/>
	</g>
</g>
<g>
	<g>
		<path d="M305.82,312.12c-5.84,16.56-11.67,33.12-17.51,49.68c-1.65,4.69-3.3,9.37-4.95,14.06c-0.8,2.28,2.82,3.26,3.62,1
			c5.84-16.56,11.67-33.12,17.51-49.68c1.65-4.69,3.3-9.37,4.95-14.06C310.24,310.84,306.62,309.86,305.82,312.12L305.82,312.12z"/>
	</g>
</g>
<g>
	<g>
		<path d="M328.92,318.92c-5.84,16.56-11.67,33.12-17.51,49.68c-1.65,4.69-3.3,9.37-4.95,14.06c-0.8,2.28,2.82,3.26,3.62,1
			c5.84-16.56,11.67-33.12,17.51-49.68c1.65-4.69,3.3-9.37,4.95-14.06C333.34,317.64,329.72,316.66,328.92,318.92L328.92,318.92z"/>
	</g>
</g>
<g>
	<g>
		<path d="M360.47,297.29c-5.84,16.56-11.67,33.12-17.51,49.68c-1.65,4.69-3.3,9.37-4.95,14.06c-0.8,2.28,2.82,3.26,3.62,1
			c5.84-16.56,11.67-33.12,17.51-49.68c1.65-4.69,3.3-9.37,4.95-14.06C364.89,296.01,361.27,295.02,360.47,297.29L360.47,297.29z"/>
	</g>
</g>
<g>
	<ellipse class="st7" cx="319.68" cy="396.92" rx="55.41" ry="56.25"/>
	<path class="st8" d="M300.49,379.64c6.51-7.67,13.03-15.34,19.54-23.01c6.28,7.44,12.56,14.88,18.84,22.31
		C326.07,379.18,313.28,379.41,300.49,379.64z"/>
	<rect x="312.73" y="378.95" class="st8" width="13.88" height="55.94"/>
</g>
<g>
	<circle class="st9" cx="128.27" cy="444.2" r="31.05"/>
	
		<rect x="123.27" y="412.48" transform="matrix(0.7193 -0.6947 0.6947 0.7193 -272.1043 213.5877)" class="st10" width="10" height="62.1"/>
</g>
<circle class="st11" cx="200.01" cy="392.89" r="39.19"/>
<path class="st12" d="M-505-14"/>
<g>
	<ellipse class="st13" cx="419.01" cy="437.73" rx="31.96" ry="32.22"/>
	<rect x="398.95" y="432.61" class="st14" width="40.11" height="10.25"/>
</g>
<g>
	<path class="st15" d="M502.17,446.01c-21.55,0-39.02-16.53-39.02-36.92s17.47-36.92,39.02-36.92c21.55,0,39.02,16.53,39.02,36.92
		S523.72,446.01,502.17,446.01z"/>
	<path class="st8" d="M514.14,396.31c5.32,4.34,10.64,8.68,15.96,13.02c-5.16,4.18-10.32,8.37-15.48,12.55
		C514.46,413.36,514.3,404.83,514.14,396.31z"/>
	
		<rect x="490.59" y="389.69" transform="matrix(-5.899342e-13 1 -1 -5.899342e-13 904.3113 -86.121)" class="st8" width="9.25" height="38.81"/>
</g>
<g>
	<ellipse class="st16" cx="431.55" cy="358.46" rx="34.57" ry="34.22"/>
	<g>
		<polygon class="st17" points="408.41,384.46 407.71,384 448.63,328.44 449.33,328.9 		"/>
		<polygon class="st17" points="409.97,385.4 409.27,384.94 450.19,329.38 450.89,329.84 		"/>
		<polygon class="st17" points="411.62,386.52 410.92,386.06 451.84,330.5 452.54,330.96 		"/>
		<polygon class="st17" points="412.95,387.59 412.25,387.14 453.17,331.58 453.87,332.04 		"/>
		<polygon class="st17" points="414.48,388.48 413.78,388.02 454.7,332.47 455.4,332.92 		"/>
	</g>
</g>
</svg>
